<svg width="400" height="140" viewBox="0 0 400 140" xmlns="http://www.w3.org/2000/svg">
            <a href="https://github.com/jfranmatheu/MolecuLab" target="_blank">
                <rect x="0" y="0" rx="10" ry="10" width="400" height="140" 
                    fill="#ffffff" stroke="#e1e4e8" stroke-width="1"/>
                
                <!-- Repository Icon -->
                <svg x="20" y="20" width="30" height="30" viewBox="0 0 16 16">
                    <path fill="#586069" d="M2 2.5A2.5 2.5 0 014.5 0h8.75a.75.75 0 01.75.75v12.5a.75.75 0 01-.75.75h-2.5a.75.75 0 110-1.5h1.75v-2h-8a1 1 0 00-.714 1.7.75.75 0 01-1.072 1.05A2.495 2.495 0 012 11.5v-9zm10.5-1V9h-8c-.356 0-.694.074-1 .208V2.5a1 1 0 011-1h8zM5 12.25v3.25a.25.25 0 00.4.2l1.45-1.087a.25.25 0 01.3 0L8.6 15.7a.25.25 0 00.4-.2v-3.25a.25.25 0 00-.25-.25h-3.5a.25.25 0 00-.25.25z"/>
                </svg>
                
                <!-- Repository Name -->
                <text x="60" y="45" font-family="Arial, sans-serif" font-size="16" font-weight="600" fill="#0366d6">
                    MolecuLab
                </text>
                
                <!-- Repository Description -->
                <text x="20" y="80" font-family="Arial, sans-serif" font-size="14" fill="#586069">
                    <tspan>Simulates particles without the internal ParticleS</tspan>
                    <tspan x="20" dy="18">ystem simulation of Blender, powered by Cython</tspan>
                </text>
                
                <!-- Language Info -->
                <circle cx="20" cy="120" r="6" fill="#3572A5"/>
                <text x="35" y="125" font-family="Arial, sans-serif" font-size="12" fill="#586069">
                    Python
                </text>
                
                <!-- Stats -->
                <text x="320" y="125" font-family="Arial, sans-serif" font-size="12" fill="#586069">
                    ★ 0 🔀 0
                </text>
                
                <!-- Tags -->
                <text x="20" y="25" font-family="Arial, sans-serif" font-size="10" fill="#6a737d">
                    stable
                </text>
            </a>
        </svg>