<svg width="400" height="140" viewBox="0 0 400 140" xmlns="http://www.w3.org/2000/svg">
            <style>
                .card { fill: var(--card-bg, #ffffff); }
                .card-stroke { stroke: var(--card-stroke, #e1e4e8); }
                .text { fill: var(--card-text, #24292e); }
                .text-secondary { fill: var(--card-secondary, #586069); }
                .text-link { fill: var(--card-link, #0366d6); }
                
                @media (prefers-color-scheme: dark) {
                    .card { fill: #0d1117; }
                    .card-stroke { stroke: #30363d; }
                    .text { fill: #c9d1d9; }
                    .text-secondary { fill: #8b949e; }
                    .text-link { fill: #58a6ff; }
                }
            </style>

            <a href="https://github.com/jfranmatheu/SimuSama" target="_blank">
                <rect x="0" y="0" rx="10" ry="10" width="400" height="140" 
                    class="card card-stroke" stroke-width="1"/>
                
                <!-- Repository Icon -->
                <svg x="20" y="20" width="30" height="30" viewBox="0 0 16 16">
                    <path class="text-secondary" d="M2 2.5A2.5 2.5 0 014.5 0h8.75a.75.75 0 01.75.75v12.5a.75.75 0 01-.75.75h-2.5a.75.75 0 110-1.5h1.75v-2h-8a1 1 0 00-.714 1.7.75.75 0 01-1.072 1.05A2.495 2.495 0 012 11.5v-9zm10.5-1V9h-8c-.356 0-.694.074-1 .208V2.5a1 1 0 011-1h8zM5 12.25v3.25a.25.25 0 00.4.2l1.45-1.087a.25.25 0 01.3 0L8.6 15.7a.25.25 0 00.4-.2v-3.25a.25.25 0 00-.25-.25h-3.5a.25.25 0 00-.25.25z"/>
                </svg>
                
                <!-- Repository Name and Dev State -->
                <text x="60" y="45" font-family="Arial, sans-serif" font-size="16" font-weight="600" class="text-link">
                    SimuSama
                    <tspan x="350" text-anchor="end" font-size="12" class="text-secondary">
                        ALPHA
                    </tspan>
                </text>
                
                <!-- Repository Description -->
                <text x="20" y="80" font-family="Arial, sans-serif" font-size="14" class="text">
                    <tspan>A simple MPM simulation engine for Blender, made w</tspan>
                    <tspan x="20" dy="18">ith C++ and Python bindings to use as addon.</tspan>
                </text>
                
                <!-- Language Info -->
                <circle cx="20" cy="120" r="6" fill="#f34b7d"/>
                <text x="35" y="125" font-family="Arial, sans-serif" font-size="12" class="text-secondary">
                    C++
                </text>
                
                <!-- Stats -->
                <text x="320" y="125" font-family="Arial, sans-serif" font-size="12" class="text-secondary">
                    ★ 4 🔀 0
                </text>
            </a>
        </svg>